# xmcd
#
# Track frame offsets: 
#        150
#        18302
#        31921
#        48101
#        67295
#        95811
#        112589
#        133094
#        146414
#        162033
#        176891
#
# Disc length: 2539 seconds
#
# Revision: 0
# Processed by: cddbd v1.5.2PL0 Copyright (c) Steve Scherf et al.
# Submitted via: ExactAudioCopy v0.99pb4
#
DISCID=9109e90b
DTITLE=Modern Earl - Inlaws and Outlaws
DYEAR=2011
DGENRE=Country Rock
TTITLE0=Blame The Bottle
TTITLE1=Busted
TTITLE2=Road Trippin'
TTITLE3=Country Love
TTITLE4=Whiskey Sister
TTITLE5=Blood, Sweet And Beers
TTITLE6=I Know You Rider
TTITLE7=Ain't No Sin
TTITLE8=If Livin' Don't Kill Me
TTITLE9=Hair Of The Dawg
TTITLE10=Drink Up And Go Home
EXTD=
EXTT0=
EXTT1=
EXTT2=
EXTT3=
EXTT4=
EXTT5=
EXTT6=
EXTT7=
EXTT8=
EXTT9=
EXTT10=
PLAYORDER=
